<?xml version="1.0" encoding="UTF-8"?>
<!DOCTYPE svg PUBLIC "-//W3C//DTD SVG 1.1//EN" "http://www.w3.org/Graphics/SVG/1.1/DTD/svg11.dtd">
<svg xmlns="http://www.w3.org/2000/svg" version="1.1" width="2458px" height="512px" style="shape-rendering:geometricPrecision; text-rendering:geometricPrecision; image-rendering:optimizeQuality; fill-rule:evenodd; clip-rule:evenodd" xmlns:xlink="http://www.w3.org/1999/xlink">
<g><path style="opacity:0.997" fill="#47a7f6" d="M 232.5,-0.5 C 247.833,-0.5 263.167,-0.5 278.5,-0.5C 364.976,9.80479 431.142,51.8048 477,125.5C 516.028,195.941 522.361,269.274 496,345.5C 461.679,430.244 400.179,483.744 311.5,506C 300.424,508.254 289.424,510.087 278.5,511.5C 263.167,511.5 247.833,511.5 232.5,511.5C 142.856,500.612 75.3562,456.279 30,378.5C 13.3053,347.029 3.1386,313.696 -0.5,278.5C -0.5,263.167 -0.5,247.833 -0.5,232.5C 10.3875,142.857 54.7208,75.3573 132.5,30C 163.971,13.3053 197.304,3.1386 232.5,-0.5 Z"/></g>
<g><path style="opacity:1" fill="#fefefe" d="M 364.5,236.5 C 364.5,281.167 364.5,325.833 364.5,370.5C 321.167,370.5 277.833,370.5 234.5,370.5C 187.916,365.627 154.082,342.293 133,300.5C 114.114,253.573 120.114,210.239 151,170.5C 184.942,133.745 226.442,120.911 275.5,132C 326.651,148.643 356.317,183.476 364.5,236.5 Z"/></g>
<g><path style="opacity:0.978" fill="#263343" d="M 1348.5,158.5 C 1365.83,158.5 1383.17,158.5 1400.5,158.5C 1400.5,170.833 1400.5,183.167 1400.5,195.5C 1383.17,195.5 1365.83,195.5 1348.5,195.5C 1348.5,183.167 1348.5,170.833 1348.5,158.5 Z"/></g>
<g><path style="opacity:0.985" fill="#263343" d="M 1641.5,158.5 C 1657.83,158.5 1674.17,158.5 1690.5,158.5C 1690.33,182.836 1690.5,207.169 1691,231.5C 1712.33,212.1 1736.83,206.6 1764.5,215C 1782.2,223.056 1791.7,236.889 1793,256.5C 1793.5,293.165 1793.67,329.832 1793.5,366.5C 1777.17,366.5 1760.83,366.5 1744.5,366.5C 1744.67,338.498 1744.5,310.498 1744,282.5C 1744.77,255.277 1731.94,245.444 1705.5,253C 1700.71,254.893 1696.05,257.06 1691.5,259.5C 1690.5,295.16 1690.17,330.827 1690.5,366.5C 1674.17,366.5 1657.83,366.5 1641.5,366.5C 1641.5,297.167 1641.5,227.833 1641.5,158.5 Z"/></g>
<g><path style="opacity:0.988" fill="#263343" d="M 708.5,163.5 C 734.441,160.561 759.108,164.728 782.5,176C 804.257,189.095 818.424,207.928 825,232.5C 832.057,261.814 830.057,290.48 819,318.5C 803.096,349.044 777.93,366.211 743.5,370C 720.797,372.727 698.797,370.06 677.5,362C 646.041,346.611 628.207,321.445 624,286.5C 620.101,259.563 624.101,233.896 636,209.5C 652.761,182.586 676.928,167.253 708.5,163.5 Z M 716.5,202.5 C 748.23,200.379 767.063,215.045 773,246.5C 777.374,269.263 774.374,290.929 764,311.5C 749.037,331.037 729.87,336.537 706.5,328C 691.176,319.308 682.01,306.142 679,288.5C 675.431,267.563 677.431,247.23 685,227.5C 691.848,214.478 702.348,206.145 716.5,202.5 Z"/></g>
<g><path style="opacity:0.988" fill="#263343" d="M 1520.5,163.5 C 1550.68,160.585 1579.35,165.751 1606.5,179C 1607.49,195.423 1607.82,211.923 1607.5,228.5C 1604.81,228.664 1602.15,228.497 1599.5,228C 1589.04,218.223 1577.04,210.889 1563.5,206C 1544.51,200.506 1526.84,203.173 1510.5,214C 1495.28,228.294 1488.28,245.961 1489.5,267C 1488.2,288.059 1495.2,305.725 1510.5,320C 1527.19,330.804 1545.19,333.471 1564.5,328C 1578.04,323.111 1590.04,315.777 1600.5,306C 1602.81,305.503 1605.14,305.337 1607.5,305.5C 1607.83,321.847 1607.5,338.18 1606.5,354.5C 1569.31,372.602 1530.98,375.435 1491.5,363C 1464.02,351.521 1446.52,331.355 1439,302.5C 1431.95,273.96 1433.62,245.96 1444,218.5C 1453.89,196.274 1470.06,180.44 1492.5,171C 1501.75,167.659 1511.08,165.159 1520.5,163.5 Z"/></g>
<g><path style="opacity:0.986" fill="#263343" d="M 2022.5,173.5 C 2038.83,173.5 2055.17,173.5 2071.5,173.5C 2071.5,187.833 2071.5,202.167 2071.5,216.5C 2086.5,216.5 2101.5,216.5 2116.5,216.5C 2116.5,227.5 2116.5,238.5 2116.5,249.5C 2101.5,249.5 2086.5,249.5 2071.5,249.5C 2071.33,272.502 2071.5,295.502 2072,318.5C 2072.41,326.902 2076.58,332.402 2084.5,335C 2093.14,336.274 2101.47,335.274 2109.5,332C 2111.81,331.503 2114.14,331.337 2116.5,331.5C 2116.82,343.081 2116.49,354.581 2115.5,366C 2098.32,369.339 2080.99,370.339 2063.5,369C 2038.61,366.779 2025.11,353.279 2023,328.5C 2022.5,302.169 2022.33,275.835 2022.5,249.5C 2015.83,249.5 2009.17,249.5 2002.5,249.5C 2002.5,238.5 2002.5,227.5 2002.5,216.5C 2009.17,216.5 2015.83,216.5 2022.5,216.5C 2022.5,202.167 2022.5,187.833 2022.5,173.5 Z"/></g>
<g><path style="opacity:0.989" fill="#263343" d="M 950.5,211.5 C 975.038,207.529 993.871,215.862 1007,236.5C 1019.45,224.854 1033.95,216.687 1050.5,212C 1086.9,207.423 1107.07,223.256 1111,259.5C 1111.5,295.165 1111.67,330.832 1111.5,366.5C 1094.83,366.5 1078.17,366.5 1061.5,366.5C 1061.67,333.832 1061.5,301.165 1061,268.5C 1059.14,255.89 1051.81,250.224 1039,251.5C 1029.64,251.43 1021.14,254.096 1013.5,259.5C 1012.5,295.16 1012.17,330.827 1012.5,366.5C 996.167,366.5 979.833,366.5 963.5,366.5C 963.916,333.477 963.416,300.477 962,267.5C 959.592,255.613 952.259,250.279 940,251.5C 930.743,251.641 922.243,254.307 914.5,259.5C 913.5,295.16 913.167,330.827 913.5,366.5C 897.167,366.5 880.833,366.5 864.5,366.5C 864.5,316.5 864.5,266.5 864.5,216.5C 880.833,216.5 897.167,216.5 913.5,216.5C 913.334,221.511 913.501,226.511 914,231.5C 924.876,222.315 937.042,215.649 950.5,211.5 Z"/></g>
<g><path style="opacity:0.986" fill="#263343" d="M 1242.5,211.5 C 1263.46,207.877 1281.29,213.544 1296,228.5C 1301.71,236.956 1305.04,246.289 1306,256.5C 1306.5,293.165 1306.67,329.832 1306.5,366.5C 1290.17,366.5 1273.83,366.5 1257.5,366.5C 1257.67,338.498 1257.5,310.498 1257,282.5C 1257.77,255.277 1244.94,245.444 1218.5,253C 1213.71,254.893 1209.05,257.06 1204.5,259.5C 1203.5,295.16 1203.17,330.827 1203.5,366.5C 1187.17,366.5 1170.83,366.5 1154.5,366.5C 1154.5,316.5 1154.5,266.5 1154.5,216.5C 1170.83,216.5 1187.17,216.5 1203.5,216.5C 1203.33,221.511 1203.5,226.511 1204,231.5C 1215.31,221.762 1228.14,215.095 1242.5,211.5 Z"/></g>
<g><path style="opacity:0.984" fill="#263343" d="M 1877.5,211.5 C 1891.5,211.333 1905.5,211.5 1919.5,212C 1932.99,212.872 1945.66,216.539 1957.5,223C 1968.44,231.03 1974.6,241.864 1976,255.5C 1976.5,292.498 1976.67,329.498 1976.5,366.5C 1960.17,366.5 1943.83,366.5 1927.5,366.5C 1927.67,361.821 1927.5,357.155 1927,352.5C 1905.68,370.831 1881.51,375.998 1854.5,368C 1830.39,355.734 1821.23,336.234 1827,309.5C 1832.97,292.195 1844.81,281.029 1862.5,276C 1883.83,270.667 1905.49,267.834 1927.5,267.5C 1928.18,260.696 1925.84,255.196 1920.5,251C 1915.16,248.248 1909.5,246.582 1903.5,246C 1894.5,245.333 1885.5,245.333 1876.5,246C 1866.33,248.391 1856.33,251.391 1846.5,255C 1843.85,255.497 1841.19,255.664 1838.5,255.5C 1838.17,243.149 1838.5,230.815 1839.5,218.5C 1852.21,215.717 1864.88,213.383 1877.5,211.5 Z M 1918.5,296.5 C 1921.5,296.5 1924.5,296.5 1927.5,296.5C 1927.67,306.839 1927.5,317.172 1927,327.5C 1914.72,337.419 1900.89,340.252 1885.5,336C 1875.97,330.748 1873.14,322.915 1877,312.5C 1878.83,308 1882,304.833 1886.5,303C 1897.1,299.85 1907.77,297.684 1918.5,296.5 Z"/></g>
<g><path style="opacity:0.983" fill="#263343" d="M 1349.5,216.5 C 1365.83,216.5 1382.17,216.5 1398.5,216.5C 1398.5,266.5 1398.5,316.5 1398.5,366.5C 1382.17,366.5 1365.83,366.5 1349.5,366.5C 1349.5,316.5 1349.5,266.5 1349.5,216.5 Z"/></g>
<g><path style="opacity:1" fill="#d8ecfc" d="M 364.5,236.5 C 365.499,281.33 365.832,326.33 365.5,371.5C 321.663,371.832 277.997,371.499 234.5,370.5C 277.833,370.5 321.167,370.5 364.5,370.5C 364.5,325.833 364.5,281.167 364.5,236.5 Z"/></g>
</svg>
